<svg width="8" height="6" viewBox="0 0 8 6" fill="none" xmlns="http://www.w3.org/2000/svg">
<path d="M7.00241 0.66712L1.00241 0.66712C0.941666 0.66731 0.882122 0.684065 0.830188 0.715579C0.778255 0.747094 0.735899 0.792175 0.707682 0.845971C0.679463 0.899767 0.666452 0.96024 0.670046 1.02088C0.67364 1.08152 0.693705 1.14003 0.72808 1.19012L3.72808 5.52345C3.85241 5.70312 4.15175 5.70312 4.27641 5.52345L7.27641 1.19012C7.31114 1.14014 7.3315 1.0816 7.33529 1.02085C7.33908 0.960113 7.32615 0.899493 7.29791 0.845583C7.26966 0.791674 7.22719 0.746535 7.17509 0.715071C7.123 0.683608 7.06327 0.667024 7.00241 0.66712Z" fill="#8655F0"/>
</svg>
