<svg width="6" height="8" viewBox="0 0 6 8" fill="none" xmlns="http://www.w3.org/2000/svg">
<path d="M1.1025 7.2007C0.925857 7.19959 0.751425 7.1587 0.590625 7.0807C0.416715 6.99893 0.268545 6.8655 0.163813 6.69633C0.0590804 6.52716 0.00221234 6.32941 0 6.1267V1.0747C0.00221234 0.871988 0.0590804 0.67424 0.163813 0.505072C0.268545 0.335905 0.416715 0.202468 0.590625 0.120701C0.79073 0.0198811 1.01336 -0.0189504 1.23315 0.00863096C1.45294 0.0362123 1.66104 0.129097 1.83375 0.276701L4.7025 2.8027C4.815 2.89823 4.90585 3.01959 4.96829 3.15775C5.03073 3.29592 5.06316 3.44732 5.06316 3.6007C5.06316 3.75408 5.03073 3.90548 4.96829 4.04365C4.90585 4.18181 4.815 4.30317 4.7025 4.3987L1.83375 6.9247C1.62696 7.10358 1.36874 7.20104 1.1025 7.2007Z" fill="#1F1E23"/>
</svg>
