<svg width="124" height="112" viewBox="0 0 124 112" fill="none" xmlns="http://www.w3.org/2000/svg">
<path d="M49.2782 23.2771C48.7385 27.0564 49.2782 31.3757 50.3575 34.6151C46.0401 28.1362 39.564 23.817 30.9293 22.1973C16.3581 20.0377 2.86624 30.2959 0.167875 45.4132C-1.45114 60.5305 8.80265 74.0282 23.9135 76.1878C32.0086 77.2676 40.1037 74.5681 45.5004 69.7089C43.3417 72.9483 41.7227 76.7277 41.1831 80.507C39.564 95.6243 49.8178 109.122 64.9287 111.282C80.0395 113.441 93.5314 103.183 96.2297 88.6056C97.8488 76.1878 90.833 64.8498 80.0395 59.9906C89.7537 62.6902 111.341 69.169 120.515 75.108L123.753 50.8122C113.499 54.0517 90.833 54.0517 80.5792 54.0517C92.452 52.4319 102.166 43.2536 103.785 31.3757C105.404 16.2583 95.1504 2.76071 80.0395 0.601095C65.4684 -2.09843 51.9765 8.15977 49.2782 23.2771Z" fill="white" fill-opacity="0.25"/>
</svg>
